<svg width="512" height="512" viewBox="0 0 512 512" fill="none" xmlns="http://www.w3.org/2000/svg"><circle cx="256" cy="256" r="256" fill="#D5F2E3"/><path d="M308.5 182.5C318.5 172.5 335 165 350 165C365 165 378.5 172.5 385 185C391.5 197.5 390 215 380 230L340 285C335 292.5 327.5 297.5 320 300L280 315C272.5 317.5 265 315 260 310C255 305 252.5 297.5 255 290L270 250C272.5 242.5 277.5 235 285 230L308.5 182.5Z" fill="#10B981" stroke="#10B981" stroke-width="12" stroke-linecap="round" stroke-linejoin="round"/><path d="M265 250C262.5 257.5 255 262.5 247.5 262.5C240 262.5 235 270 237.5 277.5L250 317.5C252.5 325 247.5 332.5 240 332.5C232.5 332.5 227.5 327.5 225 320L207.5 272.5C205 265 197.5 260 190 260C182.5 260 177.5 252.5 180 245C182.5 237.5 190 232.5 197.5 232.5C205 232.5 210 225 207.5 217.5L192.5 172.5C190 165 195 157.5 202.5 157.5C210 157.5 215 162.5 217.5 170L237.5 222.5C240 230 247.5 235 255 235C262.5 235 267.5 242.5 265 250Z" fill="#10B981" stroke="#10B981" stroke-width="12" stroke-linecap="round" stroke-linejoin="round"/></svg>
