<svg width="1200" height="630" viewBox="0 0 1200 630" fill="none" xmlns="http://www.w3.org/2000/svg">
  <!-- Background -->
  <rect width="1200" height="630" fill="#0F172A"/>
  
  <!-- Gradient overlay -->
  <defs>
    <linearGradient id="grad" x1="0%" y1="0%" x2="100%" y2="100%">
      <stop offset="0%" style="stop-color:#10B981;stop-opacity:0.2" />
      <stop offset="100%" style="stop-color:#059669;stop-opacity:0.1" />
    </linearGradient>
  </defs>
  <rect width="1200" height="630" fill="url(#grad)"/>
  
  <!-- Leaf Icon -->
  <circle cx="250" cy="315" r="140" fill="#D5F2E3" opacity="0.9"/>
  <path d="M285 245C295 235 311.5 227.5 326.5 227.5C341.5 227.5 355 235 361.5 247.5C368 260 366.5 277.5 356.5 292.5L316.5 347.5C311.5 355 304 360 296.5 362.5L256.5 377.5C249 380 241.5 377.5 236.5 372.5C231.5 367.5 229 360 231.5 352.5L246.5 312.5C249 305 254 297.5 261.5 292.5L285 245Z" fill="#10B981" stroke="#10B981" stroke-width="10" stroke-linecap="round" stroke-linejoin="round"/>
  <path d="M241.5 312.5C239 320 231.5 325 224 325C216.5 325 211.5 332.5 214 340L226.5 380C229 387.5 224 395 216.5 395C209 395 204 390 201.5 382.5L184 335C181.5 327.5 174 322.5 166.5 322.5C159 322.5 154 315 156.5 307.5C159 300 166.5 295 174 295C181.5 295 186.5 287.5 184 280L169 235C166.5 227.5 171.5 220 179 220C186.5 220 191.5 225 194 232.5L214 285C216.5 292.5 224 297.5 231.5 297.5C239 297.5 244 305 241.5 312.5Z" fill="#10B981" stroke="#10B981" stroke-width="10" stroke-linecap="round" stroke-linejoin="round"/>
  
  <!-- Text -->
  <text x="450" y="280" font-family="Poppins, sans-serif" font-size="72" font-weight="800" fill="#FFFFFF">ReHome</text>
  <text x="450" y="340" font-family="Inter, sans-serif" font-size="32" font-weight="400" fill="#10B981">Transform Clutter into Community Impact</text>
  <text x="450" y="400" font-family="Inter, sans-serif" font-size="24" font-weight="300" fill="#94A3B8">AI-powered donation platform for sustainable living</text>
</svg>
